<?xml version="1.0" encoding="utf-8"?>
<!-- Generator: Adobe Illustrator 24.0.2, SVG Export Plug-In . SVG Version: 6.00 Build 0)  -->
<svg version="1.1" id="Layer_1" xmlns="http://www.w3.org/2000/svg" xmlns:xlink="http://www.w3.org/1999/xlink" x="0px" y="0px"
	 viewBox="0 0 1380 250" style="enable-background:new 0 0 1380 250;" xml:space="preserve">
<style type="text/css">
	.st0{fill:#FFFFFF;}
	.st1{fill:#484A5B;}
	.st2{opacity:0.2;fill:#FFFFFF;enable-background:new    ;}
	.st3{opacity:0.5;enable-background:new    ;}
	.st4{opacity:0.3;fill:#FFFFFF;enable-background:new    ;}
	.st5{opacity:0.3;}
	.st6{fill:#F9F9F9;}
	.st7{fill:#F2C1B7;}
	.st8{opacity:0.3;enable-background:new    ;}
	.st9{fill:#232328;}
</style>
<rect x="629.5" y="18.4" transform="matrix(1 -6.694708e-03 6.694708e-03 1 -0.271 4.4486)" class="st0" width="69.8" height="48.5"/>
<g>
	<path class="st1" d="M652.4,67.7l29.3-0.2c0.4,0,0.7-0.3,0.7-0.7c0-0.4-0.3-0.7-0.7-0.7l0,0l-29.3,0.2c-0.4,0-0.7,0.3-0.7,0.7
		C651.7,67.4,652,67.7,652.4,67.7C652.4,67.7,652.4,67.7,652.4,67.7z"/>
</g>
<g>
	<path class="st1" d="M692.7,67.4l6.7-0.1c0.4,0,0.7-0.3,0.7-0.7l-0.2-25.2c0-0.4-0.3-0.7-0.7-0.7l0,0c-0.4,0-0.7,0.3-0.7,0.7
		l0.2,24.5l-6,0c-0.4,0-0.7,0.3-0.7,0.7C692,67.1,692.3,67.4,692.7,67.4L692.7,67.4z"/>
</g>
<g>
	<path class="st1" d="M699.1,27.1c0.4,0,0.7-0.3,0.7-0.7l0-8.3c0-0.2-0.1-0.3-0.2-0.5c-0.1-0.1-0.3-0.2-0.5-0.2l-50.2,0.3
		c-0.4,0-0.7,0.3-0.7,0.7c0,0.4,0.3,0.7,0.7,0.7l0,0l49.5-0.3l0,7.6C698.4,26.8,698.7,27.1,699.1,27.1L699.1,27.1z"/>
</g>
<g>
	<path class="st1" d="M629.4,29.2c0.4,0,0.7-0.3,0.7-0.7l-0.1-9.2l11.4-0.1c0.4,0,0.7-0.3,0.7-0.7c0-0.4-0.3-0.7-0.7-0.7l-12,0.1
		c-0.4,0-0.7,0.3-0.7,0.7l0.1,9.9C628.7,28.9,629,29.2,629.4,29.2L629.4,29.2z"/>
</g>
<rect x="655.6" y="24.6" transform="matrix(1 -6.389400e-03 6.389400e-03 1 -0.1495 4.2462)" class="st1" width="17.8" height="1.9"/>
<rect x="655.6" y="28.3" transform="matrix(1 -6.374495e-03 6.374495e-03 1 -0.1729 4.2083)" class="st1" width="8.9" height="1.9"/>
<g>
	
		<rect x="655.6" y="32" transform="matrix(1 -6.373979e-03 6.373979e-03 1 -0.1963 4.2254)" class="st1" width="14.3" height="1.9"/>
</g>
<path class="st1" d="M677.6,49.1c0,6.1-4.8,11.1-10.8,11.1c-6,0-11-4.9-11-11s4.8-11.1,10.8-11.1l0.1,11l7.7-7.9
	C676.3,43.3,677.6,46.1,677.6,49.1z"/>
<path class="st2" d="M605.9,38l39.5-6l6.5,43.7l-65.7,10.1l-7.4-49.1l18.1-2.8c1.8-0.3,3.6,0.5,4.6,2l0.3,0.4
	C602.7,37.5,604.3,38.3,605.9,38z"/>
<path class="st1" d="M586.2,86.4c-0.3,0-0.5-0.2-0.6-0.5l-15.2-50.5c-0.1-0.2,0-0.4,0.1-0.5c0.1-0.2,0.3-0.3,0.5-0.3l18.1-2.8
	c2-0.3,4.2,0.6,5.6,2.3l0.3,0.4c1,1.2,2.5,1.8,3.9,1.6l39.5-6.1c0.3-0.1,0.6,0.1,0.7,0.5l13.5,44.9c0.1,0.2,0,0.4-0.1,0.6
	c-0.1,0.2-0.3,0.3-0.5,0.3L586.2,86.4C586.3,86.4,586.2,86.4,586.2,86.4z M571.9,35.8L586.7,85l64.4-9.9L638,31.5l-38.9,6
	c-1.8,0.3-3.8-0.5-5.1-2.1l0,0l-0.3-0.4c-1.1-1.4-2.9-2.1-4.4-1.9L571.9,35.8z"/>
<g>
	<path class="st1" d="M607.3,93.8l43.3-6.9c0.4-0.1,0.6-0.4,0.5-0.8c0-0.4-0.4-0.6-0.8-0.6l-43.3,6.9c-0.4,0.1-0.6,0.4-0.5,0.8
		C606.6,93.6,606.9,93.8,607.3,93.8C607.2,93.8,607.3,93.8,607.3,93.8z"/>
</g>
<circle class="st2" cx="884.3" cy="81.4" r="25.6"/>
<rect x="845.5" y="65.3" transform="matrix(0.9945 -0.1052 0.1052 0.9945 -2.2218 90.2276)" class="st0" width="17.4" height="1.8"/>
<rect x="845.9" y="69.3" transform="matrix(0.9945 -0.1052 0.1052 0.9945 -2.6643 89.8365)" class="st0" width="8.7" height="1.8"/>
<g>
	<g>
		
			<rect x="838.4" y="50.7" transform="matrix(0.9945 -0.1043 0.1043 0.9945 -0.909 87.9407)" class="st2" width="3.9" height="3.9"/>
		
			<rect x="844.5" y="43.1" transform="matrix(0.9945 -0.1043 0.1043 0.9945 -0.4429 88.5528)" class="st2" width="3.9" height="10.9"/>
		
			<rect x="850.8" y="38.5" transform="matrix(0.9945 -0.1043 0.1043 0.9945 -0.1349 89.1908)" class="st2" width="3.9" height="14.8"/>
		<rect x="857.5" y="43" transform="matrix(0.9945 -0.1043 0.1043 0.9945 -0.2959 89.9014)" class="st2" width="3.9" height="9.6"/>
		
			<rect x="863.8" y="39.4" transform="matrix(0.9945 -0.1043 0.1043 0.9945 -3.934073e-02 90.5468)" class="st2" width="3.9" height="12.5"/>
		
			<rect x="838.9" y="54.6" transform="matrix(0.9945 -0.1043 0.1043 0.9945 -1.404 88.0191)" class="st3" width="3.9" height="5.7"/>
		
			<rect x="845.2" y="50.4" transform="matrix(0.9945 -0.1043 0.1043 0.9945 -1.1199 88.6604)" class="st3" width="3.9" height="9.2"/>
		
			<rect x="851.3" y="43.1" transform="matrix(0.9945 -0.1043 0.1043 0.9945 -0.6693 89.2744)" class="st3" width="3.9" height="15.9"/>
		
			<rect x="858" y="46.3" transform="matrix(0.9945 -0.1043 0.1043 0.9945 -0.7656 89.9763)" class="st3" width="3.9" height="11.9"/>
		
			<rect x="864.5" y="48.4" transform="matrix(0.9945 -0.1043 0.1043 0.9945 -0.8025 90.6677)" class="st3" width="3.9" height="9.2"/>
	</g>
	<g>
		<path class="st0" d="M835.1,63.5l38.3-4c0.4,0,0.6-0.4,0.6-0.7c0-0.3-0.4-0.6-0.7-0.6l-38.3,4c-0.4,0-0.6,0.4-0.6,0.7
			C834.5,63.3,834.7,63.5,835.1,63.5C835.1,63.5,835.1,63.5,835.1,63.5z"/>
	</g>
	<g>
		<path class="st0" d="M835.1,63.5c0.4,0,0.6-0.4,0.6-0.7l-2.8-26.5c0-0.3-0.4-0.6-0.7-0.6c-0.4,0-0.6,0.4-0.6,0.7l2.8,26.5
			C834.5,63.3,834.7,63.5,835.1,63.5C835.1,63.5,835.1,63.5,835.1,63.5z"/>
	</g>
</g>
<path class="st0" d="M840.2,66.6c-1.6,0-2.9,1.3-2.9,2.9c0,1.6,1.3,2.9,2.9,2.9c1.6,0,2.9-1.3,2.9-2.9
	C843.1,67.9,841.8,66.6,840.2,66.6z"/>
<g>
	<path class="st0" d="M820.1,32.8l57.7-6c0.3,0,0.6-0.4,0.6-0.7s-0.4-0.6-0.7-0.6l-57.7,6c-0.4,0-0.6,0.4-0.6,0.7
		C819.4,32.6,819.7,32.9,820.1,32.8C820,32.9,820.1,32.9,820.1,32.8z"/>
</g>
<g>
	<path class="st0" d="M886.4,67.6c0.4,0,0.6-0.4,0.6-0.7l-2.1-19.9c0-0.3-0.4-0.6-0.7-0.6c-0.4,0-0.6,0.4-0.6,0.7l2.1,19.9
		C885.7,67.4,886,67.7,886.4,67.6C886.4,67.7,886.4,67.7,886.4,67.6z"/>
</g>
<g>
	<path class="st0" d="M832.7,78.5l49.9-5.2c0.4,0,0.6-0.4,0.6-0.7c0-0.3-0.4-0.6-0.7-0.6l-49.9,5.2c-0.4,0-0.6,0.4-0.6,0.7
		C832,78.3,832.3,78.6,832.7,78.5C832.6,78.6,832.7,78.6,832.7,78.5z"/>
</g>
<g>
	<path class="st0" d="M874.6,110.4l10.3-28.8c0.1-0.3,0-0.6-0.2-0.7c-0.2-0.2-0.5-0.2-0.8,0l-28.8,18.5c-0.3,0.2-0.4,0.6-0.2,0.9
		s0.6,0.4,0.9,0.2L883.1,83l-9.7,27c-0.1,0.3,0.1,0.7,0.4,0.8c0.1,0,0.1,0,0.2,0C874.3,110.8,874.5,110.6,874.6,110.4z"/>
</g>
<path class="st2" d="M1302.9,21.8l-28.9-0.9l-1,31.6l48.1,1.5l1.1-35.6L1309,18c-1.3,0-2.5,0.7-3.1,1.8l-0.1,0.3
	C1305.1,21.2,1304.1,21.8,1302.9,21.8z"/>
<path class="st1" d="M1272.6,52.8c-0.1-0.1-0.1-0.3-0.1-0.4l5.9-33.1c0.1-0.2,0.3-0.4,0.5-0.4l28.9,0.9c1,0,2-0.6,2.6-1.5l0.2-0.3
	c0.9-1.4,2.3-2.2,3.8-2.1l13.3,0.4c0.1,0,0.3,0.1,0.4,0.2c0.1,0.1,0.1,0.3,0.1,0.4l-6.6,37.2c-0.1,0.2-0.3,0.4-0.5,0.4l-48.1-1.5
	c-0.1,0-0.1,0-0.1,0C1272.7,52.9,1272.6,52.9,1272.6,52.8z M1327.1,17.3l-12.7-0.4c-1.1,0-2.3,0.6-3,1.7l-0.2,0.3l0,0
	c-0.8,1.2-2.1,2-3.5,1.9l-28.5-0.9l-5.7,32.1l47.2,1.5L1327.1,17.3z"/>
<g>
	<g>
		<path class="st1" d="M1355.9,68.7l-5.9-4.1c-0.1-0.1-0.2-0.2-0.2-0.3c0-0.1,0-0.3,0.1-0.4l7.9-11.5c0.2-0.2,0.5-0.3,0.7-0.1
			c0.2,0.1,0.3,0.4,0.1,0.7l-7.7,11.1l5.5,3.8c0.2,0.2,0.3,0.4,0.1,0.7c-0.1,0.2-0.3,0.3-0.5,0.2C1356,68.7,1355.9,68.7,1355.9,68.7
			z"/>
	</g>
</g>
<g>
	
		<rect x="1321" y="31" transform="matrix(0.398 -0.9174 0.9174 0.398 754.0919 1261.7202)" class="st0" width="34.8" height="50.6"/>
	<g>
		<path class="st1" d="M1354.5,82.7c-0.2-0.1-0.4-0.4-0.3-0.6l13.8-31.9c0.1-0.2,0.4-0.3,0.6-0.3c0.2,0.1,0.4,0.4,0.3,0.6
			l-13.8,31.9C1355,82.7,1354.8,82.8,1354.5,82.7C1354.5,82.7,1354.5,82.7,1354.5,82.7z"/>
	</g>
	<g>
		<path class="st1" d="M1343.4,77.9l-35.3-15.3c-0.2-0.1-0.4-0.4-0.3-0.6l2.3-5.2c0.1-0.2,0.4-0.3,0.6-0.3c0.2,0.1,0.4,0.4,0.3,0.6
			l-2.1,4.7l34.8,15.1c0.2,0.1,0.4,0.4,0.3,0.6C1343.9,77.9,1343.7,78,1343.4,77.9C1343.4,77.9,1343.4,77.9,1343.4,77.9z"/>
	</g>
	<g>
		<path class="st1" d="M1317.6,40.7c-0.2-0.1-0.4-0.4-0.3-0.6l4.4-10c0.1-0.2,0.4-0.4,0.6-0.3l35.6,15.5c0.2,0.1,0.4,0.4,0.3,0.6
			c-0.1,0.2-0.4,0.3-0.6,0.3l-35.2-15.3l-4.2,9.6C1318.1,40.7,1317.9,40.8,1317.6,40.7C1317.6,40.8,1317.6,40.8,1317.6,40.7z"/>
	</g>
	<g>
		<path class="st1" d="M1337.9,56.4c-0.1-0.3,0.1-0.5,0.4-0.6l24.8-4.8c0.3,0,0.5,0.1,0.6,0.4c0,0.3-0.1,0.5-0.4,0.6l-24.8,4.8
			c-0.1,0-0.2,0-0.2,0C1338.1,56.7,1338,56.5,1337.9,56.4z"/>
	</g>
	<g>
		<path class="st1" d="M1338,56.5l-16.3-26c-0.1-0.2-0.1-0.5,0.2-0.7c0.2-0.1,0.5-0.1,0.7,0.1l16.3,26c0.1,0.2,0.1,0.5-0.2,0.7
			c-0.1,0.1-0.3,0.1-0.4,0C1338.1,56.7,1338.1,56.6,1338,56.5z"/>
	</g>
	
		<rect x="1347.6" y="64.9" transform="matrix(0.4006 -0.9163 0.9163 0.4006 742.7963 1278.1428)" class="st1" width="1.3" height="12.9"/>
	
		<rect x="1349.5" y="71.8" transform="matrix(0.4006 -0.9163 0.9163 0.4006 740.5275 1282.0919)" class="st1" width="1.3" height="6.5"/>
	
		<rect x="1321.9" y="57.7" transform="matrix(0.4006 -0.9163 0.9163 0.4006 737.5665 1247.9738)" class="st1" width="1.3" height="5.2"/>
	
		<rect x="1318.4" y="56.3" transform="matrix(0.4006 -0.9163 0.9163 0.4006 734.2191 1245.524)" class="st1" width="1.3" height="10.6"/>
</g>
<path class="st1" d="M729.4,148.8"/>
<path class="st2" d="M766.1,140.6l-29.1-4.4l-4.8,31.8l48.4,7.3l5.4-35.7l-13.3-2c-1.3-0.2-2.6,0.4-3.4,1.5l-0.2,0.3
	C768.5,140.3,767.3,140.8,766.1,140.6z"/>
<path class="st1" d="M780.5,175.8l-48.4-7.3c-0.1,0-0.3-0.1-0.3-0.2c-0.1-0.1-0.1-0.3,0-0.4l9.9-32.7c0.1-0.2,0.3-0.4,0.5-0.3
	l29.1,4.4c1,0.2,2.1-0.3,2.9-1.2l0.2-0.3c1.1-1.3,2.7-1.9,4.1-1.7l13.3,2c0.1,0,0.3,0.1,0.3,0.2c0.1,0.1,0.1,0.3,0,0.4l-11.2,36.7
	C781,175.7,780.8,175.8,780.5,175.8C780.6,175.8,780.5,175.8,780.5,175.8z M778.4,137.1c-1.1-0.2-2.4,0.4-3.2,1.4l-0.2,0.3l0,0
	c-1,1.2-2.4,1.8-3.8,1.5l-28.7-4.3l-9.6,31.7l47.4,7.2l10.9-35.8L778.4,137.1z"/>
<g>
	<path class="st1" d="M765.1,181.2l-31.9-5c-0.3-0.1-0.4-0.3-0.4-0.6c0-0.3,0.3-0.4,0.6-0.4l31.9,5c0.3,0.1,0.4,0.3,0.4,0.6
		C765.6,181.1,765.4,181.2,765.1,181.2C765.1,181.2,765.1,181.2,765.1,181.2z"/>
</g>
<circle class="st2" cx="1067.1" cy="150.7" r="79.7"/>
<g>
	<path class="st1" d="M1019.9,87.4c13.7-10.3,30.1-15.7,47.2-15.7c0.4,0,0.7-0.3,0.7-0.7s-0.3-0.7-0.7-0.7
		c-17.5,0-34.1,5.5-48.1,15.9c-0.3,0.2-0.4,0.7-0.1,1c0.1,0.2,0.4,0.3,0.6,0.3C1019.6,87.5,1019.8,87.5,1019.9,87.4z"/>
</g>
<g>
	<path class="st1" d="M1116.9,214c0.3-0.2,0.4-0.7,0.1-1c-0.2-0.3-0.7-0.4-1-0.1c-14,11.1-30.9,16.9-48.8,16.9
		c-17.1,0-33.4-5.4-47.1-15.6c-0.3-0.2-0.8-0.2-1,0.1c-0.2,0.3-0.2,0.8,0.1,1c14,10.4,30.5,15.9,48,15.9
		C1085.4,231.2,1102.6,225.3,1116.9,214z"/>
</g>
<rect x="1030.7" y="84" transform="matrix(0.9777 -0.2101 0.2101 0.9777 0.7037 226.9986)" class="st4" width="76.2" height="52.3"/>
<rect x="1037.8" y="119.6" transform="matrix(0.9769 -0.2135 0.2135 0.9769 -1.5911 226.4336)" class="st1" width="19.4" height="2"/>
<rect x="1038.8" y="124.5" transform="matrix(0.9769 -0.2135 0.2135 0.9769 -2.7317 225.7184)" class="st1" width="9.8" height="2"/>
<rect x="1039.5" y="127.8" transform="matrix(0.9769 -0.2135 0.2135 0.9769 -3.3644 226.5238)" class="st1" width="15" height="2"/>
<g>
	<path class="st1" d="M1104.9,174.9c0-0.4-0.3-0.7-0.7-0.7c-3.8,0-5.7-3-7.8-6.2c-2.2-3.4-4.4-6.8-9-6.8c-4.6,0-6.8,3.5-9,6.8
		c-2.1,3.2-4,6.2-7.8,6.2c-3.8,0-5.7-3-7.8-6.2c-2.2-3.4-4.4-6.8-9-6.8c-4.6,0-6.8,3.5-9,6.8c-2.1,3.2-4,6.2-7.8,6.2
		c-3.8,0-5.7-3-7.8-6.2c-2.2-3.4-4.4-6.8-9-6.8c-0.4,0-0.7,0.3-0.7,0.7s0.3,0.7,0.7,0.7c3.8,0,5.7,3,7.8,6.2c2.2,3.4,4.4,6.8,9,6.8
		s6.8-3.5,9-6.8c2.1-3.2,4-6.2,7.8-6.2c3.8,0,5.7,3,7.8,6.2c2.2,3.4,4.4,6.8,9,6.8s6.8-3.5,9-6.8c2.1-3.2,4-6.2,7.8-6.2
		c3.8,0,5.7,3,7.8,6.2c2.2,3.4,4.4,6.8,9,6.8C1104.5,175.7,1104.9,175.4,1104.9,174.9z"/>
</g>
<g>
	<path class="st0" d="M944.9,193.9c0-0.4-0.3-0.7-0.7-0.7c-3.8,0-5.7-3-7.8-6.2c-2.2-3.4-4.4-6.8-9-6.8s-6.8,3.5-9,6.8
		c-2,3.2-4,6.2-7.8,6.2c-3.8,0-5.7-3-7.8-6.2c-2.2-3.4-4.4-6.8-9-6.8s-6.8,3.5-9,6.8c-2,3.2-4,6.2-7.8,6.2c-3.8,0-5.7-3-7.8-6.2
		c-2.2-3.4-4.4-6.8-9-6.8c-0.4,0-0.7,0.3-0.7,0.7s0.3,0.7,0.7,0.7c3.8,0,5.7,3,7.8,6.2c2.2,3.4,4.4,6.8,9,6.8s6.8-3.5,9-6.8
		c2-3.2,4-6.2,7.8-6.2c3.8,0,5.7,3,7.8,6.2c2.2,3.4,4.4,6.8,9,6.8s6.8-3.5,9-6.8c2-3.2,4-6.2,7.8-6.2s5.7,3,7.8,6.2
		c2.2,3.4,4.4,6.8,9,6.8C944.5,194.7,944.9,194.4,944.9,193.9z"/>
</g>
<g class="st5">
	<path class="st6" d="M1048.9,44.9c0-0.4-0.3-0.7-0.7-0.7c-3.8,0-5.7-3-7.8-6.2c-2.2-3.4-4.4-6.8-9-6.8c-4.6,0-6.8,3.5-9,6.8
		c-2,3.2-4,6.2-7.8,6.2c-3.8,0-5.7-3-7.8-6.2c-2.2-3.4-4.4-6.8-9-6.8c-4.6,0-6.8,3.5-9,6.8c-2,3.2-4,6.2-7.8,6.2
		c-3.8,0-5.7-3-7.8-6.2c-2.2-3.4-4.4-6.8-9-6.8c-0.4,0-0.7,0.3-0.7,0.7s0.3,0.7,0.7,0.7c3.8,0,5.7,3,7.8,6.2c2.2,3.4,4.4,6.8,9,6.8
		s6.8-3.5,9-6.8c2-3.2,4-6.2,7.8-6.2c3.8,0,5.7,3,7.8,6.2c2.2,3.4,4.4,6.8,9,6.8s6.8-3.5,9-6.8c2.1-3.2,4-6.2,7.8-6.2
		c3.8,0,5.7,3,7.8,6.2c2.2,3.4,4.4,6.8,9,6.8C1048.5,45.7,1048.9,45.3,1048.9,44.9z"/>
</g>
<path class="st7" d="M1173.1,138.4c0,0-19.7,5-24.5-11.7c-3.5-12.3-5.5-35.6-6-42.5c-1.4-3.3-7.8-19.8-2-21.5c2.8-0.8,4.2,10,7.4,11
	c1.3,0.4,0.5-4.5,2.3-3.6c2.2,1-1.4,14.5-1.4,14.5l17.2,34.1L1173.1,138.4z"/>
<g>
	<path class="st1" d="M1153,134.3c0.4-0.3,0.4-0.9,0.1-1.2c-1.6-1.8-2.8-4-3.6-6.7c-2.9-10.1-4.7-27.9-5.6-37.5
		c0-0.5-0.5-0.8-0.9-0.8s-0.8,0.5-0.8,0.9c0.9,9.7,2.8,27.6,5.7,37.8c0.8,2.9,2.2,5.4,4,7.4c0.2,0.2,0.4,0.3,0.6,0.3
		C1152.6,134.5,1152.8,134.4,1153,134.3z"/>
</g>
<g>
	<path class="st1" d="M1163.7,113.9c0.4-0.2,0.6-0.7,0.4-1.2l-12.2-24.2c-0.2-0.4-0.7-0.6-1.2-0.4c-0.4,0.2-0.6,0.7-0.4,1.2
		l12.2,24.2c0.1,0.3,0.4,0.5,0.8,0.5C1163.5,114,1163.6,114,1163.7,113.9z"/>
</g>
<path class="st8" d="M1258.1,154.8l-19.3-15.8c0,0,10.3,23.8,13.2,56.1h-62.8l6.5-61.9l-22.6,5l-7.2-20.1c0,0,27.6-13.4,43.4-18.1
	c6-1.8,13.1-1.1,13.1-1.1s7.7,0,16.8,5.9c15.3,9.8,32.5,33.3,32.5,33.3L1258.1,154.8z"/>
<g>
	<path class="st1" d="M1251.3,189.1c0.5-0.1,0.8-0.5,0.8-1c-2.8-22.1-8.7-39.5-11.3-46.3l10.2,8.3c0.4,0.3,0.9,0.3,1.2-0.1
		c0.3-0.4,0.3-0.9-0.1-1.2l-12.8-10.4c-0.3-0.3-0.8-0.3-1.1,0c-0.3,0.3-0.4,0.7-0.3,1c0.1,0.2,8.8,20.6,12.4,48.9
		c0.1,0.4,0.4,0.8,0.9,0.8C1251.3,189.1,1251.3,189.1,1251.3,189.1z"/>
</g>
<g>
	<path class="st1" d="M1190.5,190.8l2-18.6c0-0.5-0.3-0.9-0.8-0.9c-0.5-0.1-0.9,0.3-1,0.8l-2,18.6c-0.1,0.5,0.3,0.9,0.8,0.9
		c0,0,0.1,0,0.1,0C1190,191.6,1190.4,191.3,1190.5,190.8z"/>
</g>
<g>
	<path class="st1" d="M1194.7,151.6l1.9-18.1c0-0.3-0.1-0.6-0.3-0.7c-0.2-0.2-0.5-0.3-0.8-0.2l-22.6,5c-0.5,0.1-0.8,0.6-0.7,1
		s0.6,0.8,1,0.7l21.4-4.8l-1.8,16.9c-0.1,0.5,0.3,0.9,0.8,0.9c0,0,0.1,0,0.1,0C1194.2,152.3,1194.6,152,1194.7,151.6z"/>
</g>
<g>
	<path class="st1" d="M1170.3,117.1c6.9-3.2,24.2-11.2,36.3-15.2c0.4-0.2,0.7-0.7,0.6-1.1c-0.2-0.5-0.6-0.7-1.1-0.6
		c-12.3,4.1-29.6,12-36.5,15.3c-0.4,0.2-0.6,0.7-0.4,1.2c0.2,0.3,0.5,0.5,0.8,0.5C1170,117.2,1170.2,117.1,1170.3,117.1z"/>
</g>
<g>
	<path class="st1" d="M1265.2,130.1c0.4-0.3,0.4-0.9,0.1-1.2c-6.6-8-16.5-18.7-25.7-24.7c-0.4-0.3-0.9-0.1-1.2,0.3
		c-0.3,0.4-0.1,0.9,0.3,1.2c9,5.8,18.7,16.4,25.3,24.3c0.2,0.2,0.4,0.3,0.7,0.3C1264.9,130.3,1265.1,130.2,1265.2,130.1z"/>
</g>
<path class="st7" d="M1259.7,171.6c-13.8-3.1-35.9-7.4-42.3-8.6c-1.1-0.2-2.8-0.4-3.7,0.3c-2.1,1.5-4.3,4.3-12.1,3.4
	c-5.5-0.6-8.5-3.8-7.5-5.9l2.9-3c0,0,1.4-2.8,4.8-3.2c4.3-0.6,13.7,1.4,13.7,1.4l42.5-0.8l0.1-0.3l13.6-16.5
	C1289.8,158.4,1276.9,175.5,1259.7,171.6z"/>
<g>
	<path class="st1" d="M1278.7,166.1c4.3-6.3,3.3-15.1-2.7-23.7c-0.3-0.4-0.8-0.5-1.2-0.2c-0.4,0.3-0.5,0.8-0.2,1.2
		c5.6,8.1,6.6,16,2.7,21.8c-3.5,5.1-10.1,7.3-17.4,5.6c-0.5-0.1-0.9,0.2-1,0.6c-0.1,0.5,0.2,0.9,0.7,1c1.7,0.4,3.4,0.6,5.1,0.6
		C1270.5,173,1275.6,170.6,1278.7,166.1z"/>
</g>
<g>
	<path class="st1" d="M1241.2,167.7c0.1-0.5-0.2-0.9-0.7-1c-7.7-1.6-15.1-3-20-3.9c-0.5-0.1-0.9,0.2-1,0.7c-0.1,0.5,0.2,0.9,0.7,1
		c4.8,0.9,12.2,2.4,20,3.9c0.1,0,0.1,0,0.2,0C1240.8,168.4,1241.2,168.1,1241.2,167.7z"/>
</g>
<g>
	<path class="st1" d="M1222.5,156.7l31.1-0.6c0.5,0,0.9-0.4,0.8-0.9c0-0.5-0.4-0.9-0.9-0.9l-31.1,0.6c-0.5,0-0.9,0.4-0.8,0.9
		C1221.6,156.3,1222,156.7,1222.5,156.7C1222.5,156.7,1222.5,156.7,1222.5,156.7z"/>
</g>
<path class="st9" d="M1152.4,157.8v1.9c0,1.7,1.4,3.1,3.1,3.1h48.8c1.7,0,3.1-1.4,3.1-3.1v-1.9H1152.4z"/>
<path class="st9" d="M1139.6,160.6l-10.9-28.6c-0.9-2.3,0.8-4.7,3.2-4.7h43.7c1.4,0,2.7,0.9,3.2,2.2l10.9,28.6
	c0.9,2.3-0.8,4.7-3.2,4.7h-43.7C1141.4,162.8,1140.1,161.9,1139.6,160.6z"/>
<path class="st0" d="M1157.5,140.7c2.4,0,5.2,2,6.1,4.4c0.9,2.4-0.3,4.4-2.7,4.4c-2.4,0-5.2-2-6.1-4.4
	C1153.8,142.6,1155,140.7,1157.5,140.7z"/>
<path class="st7" d="M1222.6,77.2l-0.2,20.6c0,3.3-2,6.2-5.1,7.4l-6.4,2.5l1.3-22.4L1222.6,77.2z"/>
<g>
	<path class="st1" d="M1214.9,107.1l2.7-1.1c3.4-1.3,5.6-4.6,5.6-8.2l0.1-12.7c0-0.5-0.4-0.9-0.9-0.9c-0.5,0-0.9,0.4-0.9,0.9
		l-0.1,12.7c0,2.9-1.8,5.5-4.5,6.6l-2.7,1.1c-0.4,0.2-0.7,0.7-0.5,1.1c0.1,0.3,0.5,0.6,0.8,0.6
		C1214.7,107.2,1214.8,107.2,1214.9,107.1z"/>
</g>
<path class="st7" d="M1222.5,63.4v22.8c0,0-9.3,10.5-17.2,6.2s1.1-28.9,1.1-28.9H1222.5z"/>
<g>
	<path class="st1" d="M1206.1,92.8c0.2-0.4,0.1-0.9-0.3-1.2c-3.6-2-3.1-9.1-2.1-14.8c0.1-0.5-0.2-0.9-0.7-1c-0.5-0.1-0.9,0.2-1,0.7
		c-1.6,9-0.7,14.6,2.9,16.6c0.1,0.1,0.3,0.1,0.4,0.1C1205.6,93.2,1205.9,93.1,1206.1,92.8z"/>
</g>
<path class="st9" d="M1206.1,61.4c0,0,13.5-5.9,19,0.4c5.8,6.6,4.2,25.5-2.6,26.2c-5.5,0.6-6.4-6-3.4-9.6c2.5-2.9-1.5-5.4-3.3-0.8
	c-1.3,3.4,1.4,9.9-1,14.1c-3.2,5.4-11.1,5-14,1.4c-2.7-3.3-2.1-8.2,0.2-10c1.9-1.4,4.8-0.8,7.1-0.8c4,0,2.3-2.2,5.4-5.7
	c3.1-3.5,0-6.2,0-6.2s-3.1,5-9.4,3.9c-6.3-1.1-9.2-6.8-7.1-10.8C1199.6,58,1206.1,61.4,1206.1,61.4z"/>
<g>
	<path class="st1" d="M1239.2,139.8c0.4-0.2,0.6-0.8,0.3-1.2l-6.4-11.7c-0.2-0.4-0.8-0.6-1.2-0.3s-0.6,0.8-0.3,1.2l6.4,11.7
		c0.2,0.3,0.5,0.4,0.8,0.4C1238.9,139.9,1239,139.9,1239.2,139.8z"/>
</g>
<g>
	<path class="st0" d="M1244.3,216.4c0.2-0.5-0.1-1-0.5-1.1c-10.9-3.7-10.2-13.1-10.2-13.4l0,0c0-0.5-0.3-0.9-0.8-0.9
		c-0.5,0-0.9,0.3-0.9,0.8c0,0.1-0.9,11.1,11.4,15.3c0.1,0,0.2,0.1,0.3,0.1C1243.8,217,1244.1,216.8,1244.3,216.4z"/>
</g>
<path class="st9" d="M1182.7,249h37c9.3-14.6,18.5-34.5,16.5-53.8h-46.9L1182.7,249z"/>
<path class="st9" d="M1252,195.2h-47.2l9.9,53.8h33.1C1251.1,232.9,1254,212.1,1252,195.2z"/>
<path class="st0" d="M1208.6,213.4l5.9,35.6h1.8l-5.9-35.9c-0.1-0.5-0.5-0.8-1-0.7C1208.8,212.4,1208.5,212.9,1208.6,213.4z"/>
</svg>
