<?xml version="1.0" encoding="utf-8"?>
<!-- Generator: Adobe Illustrator 24.0.2, SVG Export Plug-In . SVG Version: 6.00 Build 0)  -->
<svg version="1.1" id="Layer_1" xmlns="http://www.w3.org/2000/svg" xmlns:xlink="http://www.w3.org/1999/xlink" x="0px" y="0px"
	 viewBox="0 0 1380 250" style="enable-background:new 0 0 1380 250;" xml:space="preserve">
<style type="text/css">
	.st0{fill:#FFFFFF;}
	.st1{fill:#484A5B;}
	.st2{opacity:0.2;fill:#FFFFFF;}
	.st3{opacity:0.5;}
	.st4{opacity:0.3;fill:#FFFFFF;}
	.st5{opacity:0.3;}
	.st6{fill:#F9F9F9;}
	.st7{fill:#F2C1B7;}
	.st8{fill:#232328;}
</style>
<rect x="682.19" y="18.43" transform="matrix(-1 -6.694858e-03 6.694858e-03 -1 1433.8376 90.199)" class="st0" width="69.76" height="48.54"/>
<g>
	<path class="st1" d="M729.04,67.72c0.36,0,0.66-0.3,0.66-0.66c0-0.37-0.29-0.67-0.66-0.67l-29.35-0.2c0,0,0,0,0,0
		c-0.36,0-0.66,0.3-0.66,0.66c0,0.37,0.29,0.67,0.66,0.67L729.04,67.72C729.03,67.72,729.03,67.72,729.04,67.72z"/>
</g>
<g>
	<path class="st1" d="M688.71,67.45c0.36,0,0.66-0.3,0.66-0.66c0-0.37-0.29-0.67-0.66-0.67l-6.02-0.04l0.16-24.55
		c0-0.37-0.29-0.67-0.66-0.67c0,0,0,0,0,0c-0.36,0-0.66,0.3-0.66,0.66l-0.16,25.21c0,0.37,0.29,0.67,0.66,0.67L688.71,67.45
		C688.71,67.45,688.71,67.45,688.71,67.45z"/>
</g>
<g>
	<path class="st1" d="M682.29,27.14c0.36,0,0.66-0.3,0.66-0.66l0.05-7.61l49.53,0.33c0,0,0,0,0,0c0.36,0,0.66-0.3,0.66-0.66
		c0-0.37-0.29-0.67-0.66-0.67l-50.19-0.34c-0.17,0.01-0.34,0.07-0.47,0.19c-0.12,0.12-0.2,0.29-0.2,0.47l-0.05,8.28
		C681.63,26.84,681.93,27.14,682.29,27.14C682.29,27.14,682.29,27.14,682.29,27.14z"/>
</g>
<g>
	<path class="st1" d="M752.04,29.19c0.36,0,0.66-0.3,0.66-0.66l0.06-9.87c0-0.37-0.29-0.67-0.66-0.67l-12.04-0.08
		c-0.36-0.01-0.66,0.29-0.66,0.66c0,0.37,0.29,0.67,0.66,0.67l11.38,0.08l-0.06,9.2C751.38,28.89,751.67,29.19,752.04,29.19
		C752.04,29.19,752.04,29.19,752.04,29.19z"/>
</g>
<rect x="715.97" y="16.63" transform="matrix(6.389531e-03 -1 1 6.389531e-03 686.792 742.2582)" class="st1" width="1.86" height="17.81"/>
<rect x="720.39" y="24.78" transform="matrix(6.374624e-03 -1 1 6.374624e-03 687.4656 750.3663)" class="st1" width="1.86" height="8.94"/>
<g>
	
		<rect x="717.66" y="25.76" transform="matrix(6.374108e-03 -1 1 6.374108e-03 681.0828 751.2916)" class="st1" width="1.86" height="14.34"/>
</g>
<path class="st1" d="M707.07,41.31l7.67,7.87l0.07-11.05c6.03,0.04,10.88,5.02,10.84,11.13s-4.96,11.02-10.99,10.98
	c-6.03-0.04-10.88-5.02-10.84-11.13C703.84,46.06,705.08,43.3,707.07,41.31z"/>
<path class="st2" d="M779.63,36.19l0.25-0.37c1.02-1.51,2.8-2.3,4.59-2.02l18.08,2.78l-7.36,49.14l-65.69-10.08l6.54-43.69
	L775.52,38C777.12,38.25,778.72,37.54,779.63,36.19z"/>
<path class="st1" d="M795.09,86.38L729.39,76.3c-0.19-0.03-0.36-0.14-0.46-0.3c-0.1-0.16-0.13-0.36-0.07-0.55l13.47-44.89
	c0.1-0.32,0.41-0.52,0.73-0.47l39.49,6.06c1.37,0.21,2.89-0.44,3.88-1.64l0.31-0.38c1.43-1.75,3.59-2.64,5.62-2.33l18.08,2.78
	c0.19,0.03,0.36,0.14,0.46,0.3c0.1,0.16,0.13,0.36,0.07,0.55l-15.15,50.49c-0.09,0.28-0.34,0.47-0.63,0.47
	C795.15,86.38,795.12,86.38,795.09,86.38z M792.16,33.11c-1.55-0.24-3.28,0.49-4.4,1.86l-0.31,0.38l0,0
	c-1.3,1.58-3.25,2.39-5.09,2.11l-38.92-5.97l-13.09,43.6l64.38,9.88l14.77-49.2L792.16,33.11z"/>
<g>
	<path class="st1" d="M774.21,93.82c0.32,0,0.6-0.24,0.65-0.56c0.06-0.36-0.19-0.71-0.55-0.76l-43.26-6.88
		c-0.36-0.06-0.7,0.19-0.75,0.56c-0.06,0.36,0.19,0.71,0.55,0.76l43.26,6.88C774.14,93.82,774.17,93.82,774.21,93.82z"/>
</g>
<circle class="st2" cx="497.1" cy="81.42" r="25.56"/>
<rect x="526.26" y="57.52" transform="matrix(0.1052 -0.9945 0.9945 0.1052 405.8742 583.467)" class="st0" width="1.79" height="17.37"/>
<rect x="530.18" y="65.83" transform="matrix(0.1052 -0.9945 0.9945 0.1052 405.4275 590.9454)" class="st0" width="1.79" height="8.72"/>
<g>
	<g>
		
			<rect x="539.08" y="50.7" transform="matrix(-0.9945 -0.1043 0.1043 -0.9945 1073.5942 161.4404)" class="st2" width="3.88" height="3.88"/>
		
			<rect x="532.99" y="43.07" transform="matrix(-0.9945 -0.1043 0.1043 -0.9945 1061.884 152.5374)" class="st2" width="3.88" height="10.86"/>
		
			<rect x="526.75" y="38.46" transform="matrix(-0.9945 -0.1043 0.1043 -0.9945 1049.7004 146.6303)" class="st2" width="3.88" height="14.79"/>
		
			<rect x="520.02" y="42.94" transform="matrix(-0.9945 -0.1043 0.1043 -0.9945 1036.0966 149.7073)" class="st2" width="3.88" height="9.62"/>
		
			<rect x="513.72" y="39.37" transform="matrix(-0.9945 -0.1043 0.1043 -0.9945 1023.7523 144.8169)" class="st2" width="3.88" height="12.53"/>
		
			<rect x="538.58" y="54.56" transform="matrix(-0.9945 -0.1043 0.1043 -0.9945 1072.0959 170.9185)" class="st3" width="3.88" height="5.73"/>
		
			<rect x="532.31" y="50.43" transform="matrix(-0.9945 -0.1043 0.1043 -0.9945 1059.8378 165.4825)" class="st3" width="3.88" height="9.19"/>
		
			<rect x="526.2" y="43.09" transform="matrix(-0.9945 -0.1043 0.1043 -0.9945 1048.0825 156.866)" class="st3" width="3.88" height="15.87"/>
		
			<rect x="519.55" y="46.32" transform="matrix(-0.9945 -0.1043 0.1043 -0.9945 1034.674 158.7068)" class="st3" width="3.88" height="11.95"/>
		
			<rect x="512.95" y="48.4" transform="matrix(-0.9945 -0.1043 0.1043 -0.9945 1021.4448 159.4134)" class="st3" width="3.88" height="9.19"/>
	</g>
	<g>
		<path class="st0" d="M546.33,63.53c0.33,0,0.61-0.25,0.64-0.58c0.04-0.35-0.22-0.67-0.57-0.71l-38.33-4.02
			c-0.35-0.04-0.67,0.22-0.71,0.57c-0.04,0.35,0.22,0.67,0.57,0.71l38.33,4.02C546.29,63.53,546.31,63.53,546.33,63.53z"/>
	</g>
	<g>
		<path class="st0" d="M546.33,63.53c0.33,0,0.61-0.25,0.64-0.58l2.78-26.52c0.04-0.35-0.22-0.67-0.57-0.71
			c-0.35-0.04-0.67,0.22-0.71,0.57l-2.78,26.52c-0.04,0.35,0.22,0.67,0.57,0.71C546.29,63.53,546.31,63.53,546.33,63.53z"/>
	</g>
</g>
<path class="st0" d="M538.25,69.47c-0.01,1.59,1.27,2.89,2.86,2.91c1.59,0.01,2.89-1.27,2.91-2.86c0.01-1.59-1.27-2.89-2.86-2.91
	C539.57,66.6,538.27,67.88,538.25,69.47z"/>
<g>
	<path class="st0" d="M561.39,32.86c0.33,0,0.61-0.25,0.64-0.58c0.04-0.35-0.22-0.67-0.57-0.71l-57.66-5.98
		c-0.35-0.04-0.67,0.22-0.71,0.57c-0.04,0.35,0.22,0.67,0.57,0.71l57.66,5.98C561.34,32.86,561.36,32.86,561.39,32.86z"/>
</g>
<g>
	<path class="st0" d="M495.05,67.65c0.33,0,0.61-0.25,0.64-0.58l2.06-19.86c0.04-0.35-0.22-0.67-0.57-0.71
		c-0.35-0.04-0.67,0.22-0.71,0.57l-2.06,19.86c-0.04,0.35,0.22,0.67,0.57,0.71C495.01,67.65,495.03,67.65,495.05,67.65z"/>
</g>
<g>
	<path class="st0" d="M548.78,78.56c0.33,0,0.61-0.25,0.64-0.58c0.04-0.35-0.22-0.67-0.57-0.71l-49.92-5.18
		c-0.35-0.04-0.67,0.22-0.71,0.57c-0.04,0.35,0.22,0.67,0.57,0.71l49.92,5.18C548.73,78.56,548.76,78.56,548.78,78.56z"/>
</g>
<g>
	<path class="st0" d="M507.4,110.81c0.07,0,0.15-0.01,0.22-0.04c0.33-0.12,0.51-0.49,0.39-0.82l-9.67-26.97l27.21,17.48
		c0.3,0.19,0.7,0.11,0.89-0.19c0.19-0.3,0.11-0.7-0.19-0.89l-28.8-18.5c-0.23-0.15-0.53-0.13-0.75,0.04
		c-0.22,0.17-0.3,0.46-0.21,0.72l10.31,28.75C506.89,110.64,507.14,110.81,507.4,110.81z"/>
</g>
<path class="st2" d="M75.71,20.16l-0.15-0.28c-0.6-1.16-1.82-1.87-3.13-1.83l-13.25,0.43l1.14,35.56l48.14-1.55l-1.02-31.62
	L78.52,21.8C77.34,21.84,76.25,21.2,75.71,20.16z"/>
<path class="st1" d="M108.62,52.94c-0.04,0.01-0.09,0.02-0.14,0.02l-48.14,1.55c-0.24,0.01-0.44-0.16-0.49-0.39l-6.64-37.19
	c-0.02-0.14,0.01-0.28,0.1-0.39c0.09-0.11,0.22-0.17,0.36-0.18l13.25-0.43c1.49-0.05,2.96,0.77,3.84,2.14l0.19,0.29
	c0.61,0.94,1.65,1.53,2.65,1.5l28.93-0.93c0.24-0.01,0.44,0.16,0.49,0.39l5.91,33.07c0.02,0.14-0.01,0.28-0.1,0.39
	C108.78,52.86,108.7,52.91,108.62,52.94z M60.73,53.54l47.17-1.52l-5.74-32.11l-28.52,0.92c-1.35,0.04-2.68-0.7-3.49-1.94l0,0
	l-0.19-0.29c-0.69-1.07-1.87-1.74-3.01-1.7l-12.7,0.41L60.73,53.54z"/>
<g>
	<g>
		<path class="st1" d="M25.38,68.74c-0.2,0.07-0.42,0-0.55-0.18c-0.15-0.22-0.1-0.52,0.12-0.67l5.48-3.78l-7.65-11.09
			c-0.15-0.22-0.1-0.52,0.12-0.67c0.22-0.15,0.52-0.1,0.67,0.12l7.92,11.48c0.07,0.1,0.1,0.23,0.08,0.36
			c-0.02,0.12-0.09,0.24-0.2,0.31l-5.88,4.06C25.46,68.7,25.42,68.72,25.38,68.74z"/>
	</g>
</g>
<g>
	
		<rect x="17.71" y="38.91" transform="matrix(0.9174 -0.398 0.398 0.9174 -18.8505 21.7611)" class="st0" width="50.57" height="34.75"/>
	<g>
		<path class="st1" d="M26.87,82.74c-0.23,0.08-0.49-0.03-0.59-0.26L12.44,50.6c-0.11-0.24,0.01-0.52,0.25-0.63
			c0.24-0.1,0.52,0.01,0.63,0.25L27.15,82.1c0.11,0.24-0.01,0.52-0.25,0.63C26.89,82.73,26.88,82.74,26.87,82.74z"/>
	</g>
	<g>
		<path class="st1" d="M37.97,77.93c-0.23,0.08-0.49-0.03-0.59-0.26c-0.11-0.24,0.01-0.52,0.25-0.63l34.85-15.12l-2.06-4.74
			c-0.11-0.24,0.01-0.52,0.25-0.63c0.24-0.1,0.52,0.01,0.63,0.25l2.25,5.18c0.11,0.24-0.01,0.52-0.25,0.63L38,77.91
			C37.99,77.92,37.98,77.92,37.97,77.93z"/>
	</g>
	<g>
		<path class="st1" d="M63.77,40.76c-0.23,0.08-0.49-0.03-0.59-0.26l-4.16-9.59L23.84,46.17c-0.24,0.1-0.52-0.01-0.63-0.25
			c-0.11-0.24,0.01-0.52,0.25-0.63l35.62-15.45c0.24-0.1,0.52,0.01,0.63,0.25l4.35,10.03c0.11,0.24-0.01,0.52-0.25,0.63
			C63.8,40.75,63.78,40.76,63.77,40.76z"/>
	</g>
	<g>
		<path class="st1" d="M43.14,56.74c-0.08,0.03-0.16,0.03-0.24,0.02l-24.81-4.84c-0.26-0.05-0.43-0.3-0.38-0.56
			c0.05-0.26,0.3-0.43,0.56-0.38l24.81,4.84c0.26,0.05,0.43,0.3,0.38,0.56C43.43,56.55,43.3,56.69,43.14,56.74z"/>
	</g>
	<g>
		<path class="st1" d="M43.14,56.74c-0.13,0.04-0.28,0.03-0.41-0.05c-0.22-0.14-0.29-0.44-0.15-0.66l16.28-26
			c0.14-0.22,0.44-0.29,0.66-0.15c0.22,0.14,0.29,0.44,0.15,0.66l-16.28,26C43.34,56.64,43.25,56.7,43.14,56.74z"/>
	</g>
	
		<rect x="26.67" y="70.69" transform="matrix(0.9163 -0.4006 0.4006 0.9163 -25.8111 19.2448)" class="st1" width="12.91" height="1.33"/>
	<rect x="28" y="74.4" transform="matrix(0.9163 -0.4006 0.4006 0.9163 -27.454 18.7988)" class="st1" width="6.48" height="1.33"/>
	
		<rect x="56.22" y="59.6" transform="matrix(0.9163 -0.4006 0.4006 0.9163 -19.217 28.6025)" class="st1" width="5.15" height="1.33"/>
	
		<rect x="57.06" y="60.94" transform="matrix(0.9163 -0.4006 0.4006 0.9163 -19.4561 30.1284)" class="st1" width="10.56" height="1.33"/>
</g>
<path class="st1" d="M652,148.81"/>
<path class="st2" d="M612.26,139.31l-0.18-0.27c-0.75-1.1-2.06-1.67-3.38-1.47l-13.32,2.02l5.42,35.74l48.37-7.33l-4.82-31.77
	l-29.08,4.41C614.1,140.8,612.93,140.29,612.26,139.31z"/>
<path class="st1" d="M600.8,175.81c-0.21,0-0.4-0.14-0.46-0.34l-11.16-36.72c-0.04-0.14-0.02-0.28,0.05-0.4
	c0.08-0.12,0.2-0.2,0.34-0.22l13.32-2.02c1.49-0.23,3.08,0.42,4.14,1.69l0.23,0.27c0.73,0.88,1.85,1.35,2.86,1.2l29.08-4.41
	c0.24-0.04,0.47,0.11,0.54,0.34l9.92,32.65c0.04,0.14,0.02,0.28-0.05,0.4c-0.08,0.12-0.2,0.2-0.34,0.22l-48.37,7.33
	C600.85,175.81,600.82,175.81,600.8,175.81z M590.27,139l10.87,35.78l47.4-7.18l-9.64-31.71l-28.66,4.34
	c-1.35,0.21-2.79-0.38-3.75-1.54l0,0l-0.23-0.27c-0.83-1-2.1-1.53-3.24-1.35L590.27,139z"/>
<g>
	<path class="st1" d="M616.25,181.22c-0.24,0-0.44-0.17-0.48-0.41c-0.04-0.27,0.14-0.51,0.4-0.56l31.86-5
		c0.27-0.04,0.51,0.14,0.56,0.4c0.04,0.27-0.14,0.51-0.4,0.56l-31.86,5C616.3,181.21,616.27,181.22,616.25,181.22z"/>
</g>
<circle class="st2" cx="314.26" cy="150.74" r="79.74"/>
<g>
	<path class="st1" d="M361.91,87.52c0.22,0,0.44-0.1,0.58-0.29c0.24-0.32,0.17-0.77-0.15-1.01c-13.97-10.43-30.6-15.94-48.09-15.94
		c-0.4,0-0.72,0.32-0.72,0.72c0,0.4,0.32,0.72,0.72,0.72c17.17,0,33.5,5.41,47.23,15.66C361.61,87.47,361.76,87.52,361.91,87.52z"/>
</g>
<g>
	<path class="st1" d="M314.26,231.21c17.43,0,34.02-5.48,47.97-15.85c0.32-0.24,0.39-0.69,0.15-1.01c-0.24-0.32-0.69-0.39-1.01-0.15
		c-13.7,10.19-29.99,15.57-47.11,15.57c-17.91,0-34.79-5.84-48.83-16.89c-0.31-0.25-0.77-0.19-1.01,0.12
		c-0.25,0.31-0.19,0.77,0.12,1.01C278.83,225.26,296.02,231.21,314.26,231.21z"/>
</g>
<rect x="274.58" y="84.04" transform="matrix(-0.9777 -0.2101 0.2101 -0.9777 595.1815 283.6235)" class="st4" width="76.15" height="52.33"/>
<rect x="332.9" y="110.86" transform="matrix(0.2135 -0.9769 0.9769 0.2135 144.8061 421.0262)" class="st1" width="2" height="19.44"/>
<rect x="336.78" y="120.62" transform="matrix(0.2135 -0.9769 0.9769 0.2135 143.0527 428.689)" class="st1" width="2" height="9.76"/>
<rect x="333.37" y="121.33" transform="matrix(0.2135 -0.9769 0.9769 0.2135 137.1203 427.9799)" class="st1" width="2" height="14.99"/>
<g>
	<path class="st1" d="M277.26,175.67c4.58,0,6.82-3.47,8.98-6.83c2.04-3.17,3.97-6.17,7.77-6.17s5.72,3,7.77,6.17
		c2.16,3.36,4.4,6.83,8.98,6.83c4.58,0,6.82-3.47,8.98-6.83c2.04-3.17,3.97-6.17,7.77-6.17c3.79,0,5.72,3,7.77,6.17
		c2.16,3.36,4.4,6.83,8.98,6.83c4.58,0,6.81-3.47,8.98-6.83c2.04-3.17,3.97-6.17,7.77-6.17c0.4,0,0.72-0.32,0.72-0.72
		c0-0.4-0.32-0.72-0.72-0.72c-4.58,0-6.81,3.47-8.98,6.83c-2.04,3.17-3.97,6.17-7.77,6.17c-3.79,0-5.72-3-7.77-6.17
		c-2.16-3.36-4.4-6.83-8.98-6.83c-4.58,0-6.81,3.47-8.98,6.83c-2.04,3.17-3.97,6.17-7.77,6.17c-3.79,0-5.72-3-7.77-6.17
		c-2.16-3.36-4.4-6.83-8.98-6.83c-4.58,0-6.82,3.47-8.98,6.83c-2.04,3.17-3.97,6.17-7.77,6.17c-0.4,0-0.72,0.32-0.72,0.72
		C276.54,175.35,276.86,175.67,277.26,175.67z"/>
</g>
<g>
	<path class="st0" d="M437.26,194.67c4.58,0,6.82-3.47,8.98-6.83c2.04-3.17,3.97-6.17,7.77-6.17s5.72,3,7.77,6.17
		c2.16,3.36,4.4,6.83,8.98,6.83c4.58,0,6.82-3.47,8.98-6.83c2.04-3.17,3.97-6.17,7.77-6.17c3.79,0,5.72,3,7.77,6.17
		c2.16,3.36,4.4,6.83,8.98,6.83c4.58,0,6.81-3.47,8.98-6.83c2.04-3.17,3.97-6.17,7.77-6.17c0.4,0,0.72-0.32,0.72-0.72
		c0-0.4-0.32-0.72-0.72-0.72c-4.58,0-6.81,3.47-8.98,6.83c-2.04,3.17-3.97,6.17-7.77,6.17c-3.79,0-5.72-3-7.77-6.17
		c-2.16-3.36-4.4-6.83-8.98-6.83c-4.58,0-6.81,3.47-8.98,6.83c-2.04,3.17-3.97,6.17-7.77,6.17c-3.79,0-5.72-3-7.77-6.17
		c-2.16-3.36-4.4-6.83-8.98-6.83c-4.58,0-6.82,3.47-8.98,6.83c-2.04,3.17-3.97,6.17-7.77,6.17c-0.4,0-0.72,0.32-0.72,0.72
		C436.54,194.35,436.86,194.67,437.26,194.67z"/>
</g>
<g class="st5">
	<path class="st6" d="M333.26,45.67c4.58,0,6.82-3.47,8.98-6.83c2.04-3.17,3.97-6.17,7.77-6.17s5.72,3,7.77,6.17
		c2.16,3.36,4.4,6.83,8.98,6.83c4.58,0,6.82-3.47,8.98-6.83c2.04-3.17,3.97-6.17,7.77-6.17c3.79,0,5.72,3,7.77,6.17
		c2.16,3.36,4.4,6.83,8.98,6.83c4.58,0,6.81-3.47,8.98-6.83c2.04-3.17,3.97-6.17,7.77-6.17c0.4,0,0.72-0.32,0.72-0.72
		c0-0.4-0.32-0.72-0.72-0.72c-4.58,0-6.81,3.47-8.98,6.83c-2.04,3.17-3.97,6.17-7.77,6.17c-3.79,0-5.72-3-7.77-6.17
		c-2.16-3.36-4.4-6.83-8.98-6.83c-4.58,0-6.81,3.47-8.98,6.83c-2.04,3.17-3.97,6.17-7.77,6.17c-3.79,0-5.72-3-7.77-6.17
		c-2.16-3.36-4.4-6.83-8.98-6.83c-4.58,0-6.82,3.47-8.98,6.83c-2.04,3.17-3.97,6.17-7.77,6.17c-0.4,0-0.72,0.32-0.72,0.72
		C332.54,45.35,332.86,45.67,333.26,45.67z"/>
</g>
<path class="st7" d="M215.4,118.47l17.19-34.05c0,0-3.6-13.46-1.43-14.49c1.86-0.88,1.02,4.05,2.32,3.64c3.16-1,4.6-11.8,7.37-11
	c5.76,1.66-0.68,18.2-2.04,21.51c-0.54,6.91-2.54,30.23-6.03,42.53c-4.75,16.74-24.48,11.74-24.48,11.74L215.4,118.47z"/>
<g>
	<path class="st1" d="M229.02,134.51c0.24,0,0.47-0.09,0.64-0.28c1.8-1.97,3.14-4.46,3.97-7.38c2.91-10.26,4.79-28.11,5.66-37.84
		c0.04-0.48-0.31-0.9-0.79-0.94c-0.48-0.04-0.9,0.31-0.94,0.79c-0.86,9.66-2.73,27.39-5.6,37.52c-0.76,2.66-1.96,4.91-3.58,6.68
		c-0.32,0.35-0.3,0.9,0.06,1.22C228.6,134.43,228.81,134.51,229.02,134.51z"/>
</g>
<g>
	<path class="st1" d="M218.08,114.04c0.32,0,0.62-0.17,0.77-0.48l12.24-24.24c0.22-0.43,0.04-0.95-0.38-1.16
		c-0.43-0.22-0.95-0.04-1.16,0.38l-12.24,24.24c-0.22,0.43-0.04,0.95,0.38,1.16C217.81,114.01,217.94,114.04,218.08,114.04z"/>
</g>
<path class="st5" d="M109.74,138.29c0,0,17.18-23.5,32.46-33.34c9.13-5.88,16.8-5.88,16.8-5.88s7.09-0.72,13.1,1.06
	c15.8,4.67,43.42,18.09,43.42,18.09l-7.22,20.12l-22.61-5.04l6.55,61.86h-62.84c2.96-32.37,13.24-56.12,13.24-56.12l-19.31,15.78
	L109.74,138.29z"/>
<g>
	<path class="st1" d="M130.17,189.1c0.43,0,0.8-0.32,0.86-0.76c3.59-28.31,12.33-48.75,12.41-48.95c0.16-0.37,0.05-0.79-0.27-1.04
		c-0.32-0.24-0.76-0.23-1.07,0.02l-12.75,10.41c-0.37,0.3-0.43,0.85-0.12,1.22c0.3,0.37,0.85,0.43,1.22,0.12l10.16-8.3
		c-2.58,6.81-8.5,24.18-11.31,46.3c-0.06,0.48,0.28,0.91,0.75,0.97C130.1,189.1,130.14,189.1,130.17,189.1z"/>
</g>
<g>
	<path class="st1" d="M191.79,191.6c0.03,0,0.06,0,0.09,0c0.48-0.05,0.82-0.48,0.77-0.95l-1.97-18.58
		c-0.05-0.48-0.48-0.82-0.95-0.77c-0.48,0.05-0.82,0.48-0.77,0.95l1.97,18.58C190.97,191.27,191.35,191.6,191.79,191.6z"/>
</g>
<g>
	<path class="st1" d="M187.62,152.31c0.03,0,0.06,0,0.09,0c0.48-0.05,0.82-0.48,0.77-0.95l-1.79-16.93l21.43,4.78
		c0.47,0.11,0.93-0.19,1.03-0.66c0.1-0.47-0.19-0.93-0.66-1.03l-22.61-5.04c-0.27-0.06-0.56,0.01-0.77,0.2
		c-0.21,0.19-0.31,0.46-0.29,0.74l1.92,18.13C186.81,151.98,187.19,152.31,187.62,152.31z"/>
</g>
<g>
	<path class="st1" d="M211.48,117.17c0.33,0,0.64-0.18,0.79-0.5c0.2-0.43,0.02-0.95-0.42-1.15c-6.9-3.25-24.26-11.23-36.54-15.29
		c-0.46-0.15-0.95,0.1-1.1,0.55c-0.15,0.45,0.1,0.94,0.55,1.1c12.19,4.02,29.48,11.98,36.35,15.21
		C211.23,117.14,211.36,117.17,211.48,117.17z"/>
</g>
<g>
	<path class="st1" d="M116.72,130.31c0.25,0,0.5-0.11,0.67-0.31c6.56-7.89,16.27-18.51,25.28-24.31c0.4-0.26,0.52-0.8,0.26-1.2
		c-0.26-0.4-0.8-0.52-1.2-0.26c-9.2,5.92-19.04,16.68-25.67,24.66c-0.31,0.37-0.26,0.91,0.11,1.22
		C116.33,130.24,116.53,130.31,116.72,130.31z"/>
</g>
<path class="st7" d="M109.74,138.29l13.59,16.54l0.13,0.34l42.51,0.78c0,0,9.44-2.03,13.69-1.41c3.38,0.49,4.82,3.24,4.82,3.24
	l2.87,2.96c1,2.12-2,5.39-7.5,5.95c-7.82,0.81-10.04-1.99-12.12-3.45c-0.93-0.65-2.58-0.48-3.69-0.26
	c-6.46,1.23-28.56,5.48-42.35,8.62C104.53,175.5,91.61,158.43,109.74,138.29z"/>
<g>
	<path class="st1" d="M116.8,173.02c1.65,0,3.36-0.19,5.1-0.59c0.47-0.11,0.76-0.57,0.65-1.04c-0.11-0.47-0.57-0.76-1.04-0.65
		c-7.25,1.65-13.9-0.51-17.37-5.64c-3.89-5.75-2.91-13.67,2.67-21.75c0.27-0.39,0.17-0.93-0.22-1.21c-0.39-0.27-0.93-0.17-1.21,0.22
		c-5.93,8.57-6.93,17.44-2.68,23.71C105.75,170.56,110.9,173.02,116.8,173.02z"/>
</g>
<g>
	<path class="st1" d="M141,168.36c0.06,0,0.12-0.01,0.17-0.02c7.73-1.56,15.12-3,19.97-3.93c0.47-0.09,0.78-0.54,0.69-1.01
		c-0.09-0.47-0.55-0.78-1.01-0.69c-4.85,0.93-12.25,2.37-19.98,3.94c-0.47,0.1-0.77,0.55-0.68,1.02
		C140.24,168.08,140.6,168.36,141,168.36z"/>
</g>
<g>
	<path class="st1" d="M158.9,156.68c0.47,0,0.86-0.38,0.87-0.85c0.01-0.48-0.37-0.87-0.85-0.88l-31.11-0.57
		c-0.48-0.02-0.87,0.37-0.88,0.85c-0.01,0.48,0.37,0.87,0.85,0.88l31.11,0.57C158.89,156.68,158.9,156.68,158.9,156.68z"/>
</g>
<path class="st8" d="M173.97,157.77v1.94c0,1.7,1.39,3.1,3.1,3.1h48.85c1.7,0,3.1-1.39,3.1-3.1v-1.94H173.97z"/>
<path class="st8" d="M238.59,162.8H194.9c-2.42,0-4.09-2.43-3.23-4.69l10.95-28.57c0.51-1.34,1.8-2.22,3.23-2.22h43.69
	c2.42,0,4.09,2.43,3.23,4.69l-10.95,28.57C241.31,161.92,240.03,162.8,238.59,162.8z"/>
<path class="st0" d="M226.63,145.06c-0.94,2.43-3.68,4.4-6.11,4.4c-2.43,0-3.64-1.97-2.7-4.4c0.94-2.43,3.68-4.4,6.11-4.4
	C226.36,140.66,227.57,142.63,226.63,145.06z"/>
<path class="st7" d="M169.18,85.36l1.33,22.41l-6.42-2.54c-3.04-1.2-5.05-4.12-5.08-7.39L158.8,77.2L169.18,85.36z"/>
<g>
	<path class="st1" d="M166.84,107.19c0.35,0,0.67-0.21,0.81-0.55c0.18-0.45-0.04-0.95-0.49-1.13l-2.74-1.08
		c-2.73-1.08-4.51-3.67-4.54-6.6l-0.13-12.67c-0.01-0.48-0.41-0.86-0.88-0.86c-0.48,0-0.86,0.4-0.86,0.88l0.13,12.67
		c0.04,3.64,2.25,6.85,5.63,8.19l2.74,1.08C166.62,107.17,166.73,107.19,166.84,107.19z"/>
</g>
<path class="st7" d="M174.95,63.39c0,0,8.98,24.6,1.11,28.95c-7.87,4.35-17.16-6.2-17.16-6.2V63.39H174.95z"/>
<g>
	<path class="st1" d="M176.06,93.21c0.14,0,0.29-0.03,0.42-0.11c3.57-1.97,4.55-7.55,2.91-16.59c-0.09-0.47-0.54-0.78-1.01-0.7
		c-0.47,0.09-0.78,0.54-0.7,1.01c1.02,5.65,1.5,12.8-2.05,14.76c-0.42,0.23-0.57,0.76-0.34,1.18
		C175.46,93.05,175.75,93.21,176.06,93.21z"/>
</g>
<path class="st8" d="M184.58,63.39c2.07,4.03-0.8,9.7-7.12,10.79c-6.3,1.08-9.41-3.88-9.41-3.88s-3.11,2.76,0,6.22
	c3.11,3.47,1.41,5.67,5.39,5.67c2.3,0,5.13-0.61,7.06,0.84c2.29,1.73,2.92,6.72,0.22,9.98c-2.98,3.6-10.84,4.05-14.05-1.38
	c-2.46-4.17,0.33-10.71-1.02-14.09c-1.8-4.51-5.78-2.08-3.31,0.85c3.02,3.59,2.07,10.17-3.43,9.59c-6.73-0.71-8.33-19.56-2.55-26.18
	c5.5-6.31,18.98-0.4,18.98-0.4S181.82,58.03,184.58,63.39z"/>
<g>
	<path class="st1" d="M142.65,139.92c0.31,0,0.6-0.16,0.76-0.45l6.44-11.73c0.23-0.42,0.08-0.95-0.34-1.18
		c-0.42-0.23-0.95-0.08-1.18,0.34l-6.44,11.73c-0.23,0.42-0.08,0.95,0.34,1.18C142.37,139.88,142.51,139.92,142.65,139.92z"/>
</g>
<g>
	<path class="st0" d="M137.95,216.97c0.09,0,0.19-0.02,0.28-0.05c12.22-4.16,11.38-15.14,11.37-15.25
		c-0.04-0.48-0.46-0.83-0.94-0.79c-0.48,0.04-0.83,0.46-0.79,0.94l0,0c0.03,0.4,0.7,9.74-10.2,13.45c-0.45,0.15-0.7,0.65-0.54,1.1
		C137.25,216.75,137.59,216.97,137.95,216.97z"/>
</g>
<path class="st8" d="M192.13,195.17h-46.9c-1.99,19.35,7.2,39.2,16.52,53.83h36.96L192.13,195.17z"/>
<path class="st8" d="M133.58,249h33.06l9.94-53.83h-47.17C127.38,212.1,130.31,232.94,133.58,249z"/>
<path class="st0" d="M172.1,212.36c-0.47-0.08-0.92,0.24-1,0.71L165.18,249h1.76l5.88-35.65
	C172.89,212.88,172.57,212.44,172.1,212.36z"/>
</svg>
